<?xml version="1.0" encoding="utf-8" standalone="no"?>
<!DOCTYPE svg PUBLIC "-//W3C//DTD SVG 1.1//EN"
  "http://www.w3.org/Graphics/SVG/1.1/DTD/svg11.dtd">
<svg xmlns:xlink="http://www.w3.org/1999/xlink" width="502.986875pt" height="194.568pt" viewBox="0 0 502.986875 194.568" xmlns="http://www.w3.org/2000/svg" version="1.1">
 <metadata>
  <rdf:RDF xmlns:dc="http://purl.org/dc/elements/1.1/" xmlns:cc="http://creativecommons.org/ns#" xmlns:rdf="http://www.w3.org/1999/02/22-rdf-syntax-ns#">
   <cc:Work>
    <dc:type rdf:resource="http://purl.org/dc/dcmitype/StillImage"/>
    <dc:date>2026-09-19T09:17:49.499325</dc:date>
    <dc:format>image/svg+xml</dc:format>
    <dc:creator>
     <cc:Agent>
      <dc:title>Matplotlib v3.10.8, https://matplotlib.org/</dc:title>
     </cc:Agent>
    </dc:creator>
   </cc:Work>
  </rdf:RDF>
 </metadata>
 <defs>
  <style type="text/css">*{stroke-linejoin: round; stroke-linecap: butt}</style>
 </defs>
 <g id="figure_1">
  <g id="patch_1">
   <path d="M 0 194.568 
L 502.986875 194.568 
L 502.986875 0 
L 0 0 
z
" style="fill: #ffffff"/>
  </g>
  <g id="axes_1">
   <g id="patch_2">
    <path d="M 47.370875 152.07 
L 176.226047 152.07 
L 176.226047 45.222 
L 47.370875 45.222 
z
" style="fill: #ffffff"/>
   </g>
   <g id="line2d_1">
    <path d="M 47.370875 126.265096 
L 176.226047 126.265096 
" clip-path="url(#p90845fff67)" style="fill: none; stroke: #a0a0a0; stroke-width: 0.6; stroke-linecap: square"/>
   </g>
   <g id="line2d_2">
    <path d="M 53.227928 152.07 
L 53.227928 45.222 
" clip-path="url(#p90845fff67)" style="fill: none; stroke: #d0d0d0; stroke-width: 0.6; stroke-linecap: square"/>
   </g>
   <g id="FillBetweenPolyCollection_1">
    <defs>
     <path id="m1bf21f4509" d="M 53.227928 -68.302904 
L 53.227928 -68.302904 
L 54.399339 -68.477943 
L 55.57075 -68.652982 
L 56.74216 -68.828021 
L 57.913571 -69.00306 
L 59.084982 -69.178099 
L 60.256392 -69.353138 
L 61.427803 -69.528177 
L 62.599214 -69.703216 
L 63.770624 -69.878255 
L 64.942035 -70.053294 
L 66.113446 -70.228333 
L 67.284856 -70.403372 
L 68.456267 -70.578411 
L 69.627678 -70.75345 
L 70.799088 -70.92849 
L 71.970499 -71.103529 
L 73.141909 -71.278568 
L 74.31332 -71.453607 
L 75.484731 -71.628646 
L 76.656141 -71.803685 
L 77.827552 -71.978724 
L 78.998963 -72.153763 
L 80.170373 -72.328802 
L 81.341784 -72.503841 
L 82.513195 -72.67888 
L 83.684605 -72.853919 
L 84.856016 -73.028958 
L 86.027427 -73.203997 
L 87.198837 -73.379036 
L 88.370248 -73.554075 
L 89.541659 -73.729114 
L 90.713069 -73.904153 
L 91.88448 -74.079192 
L 93.055891 -74.254231 
L 94.227301 -74.42927 
L 95.398712 -74.604309 
L 96.570123 -74.779348 
L 97.741533 -74.954388 
L 98.912944 -75.129427 
L 100.084355 -75.304466 
L 101.255765 -75.479505 
L 102.427176 -75.654544 
L 103.598587 -75.829583 
L 104.769997 -76.004622 
L 105.941408 -76.179661 
L 107.112819 -76.3547 
L 108.284229 -76.529739 
L 109.45564 -76.704778 
L 110.627051 -76.879817 
L 111.798461 -77.054856 
L 112.969872 -77.229895 
L 114.141283 -77.404934 
L 115.312693 -77.579973 
L 116.484104 -77.755012 
L 117.655514 -77.930051 
L 118.826925 -78.10509 
L 119.998336 -78.280129 
L 121.169746 -78.455168 
L 122.341157 -78.630207 
L 123.512568 -78.805246 
L 124.683978 -78.980286 
L 125.855389 -79.155325 
L 127.0268 -79.330364 
L 128.19821 -79.505403 
L 129.369621 -79.680442 
L 130.541032 -79.855481 
L 131.712442 -80.03052 
L 132.883853 -80.205559 
L 134.055264 -80.380598 
L 135.226674 -80.555637 
L 136.398085 -80.730676 
L 137.569496 -80.905715 
L 138.740906 -81.080754 
L 139.912317 -81.255793 
L 141.083728 -81.430832 
L 142.255138 -81.605871 
L 143.426549 -81.78091 
L 144.59796 -81.955949 
L 145.76937 -82.130988 
L 146.940781 -82.306027 
L 148.112192 -82.481066 
L 149.283602 -82.656105 
L 150.455013 -82.831144 
L 151.626424 -83.006183 
L 152.797834 -83.181223 
L 153.969245 -83.356262 
L 155.140656 -83.531301 
L 156.312066 -83.70634 
L 157.483477 -83.881379 
L 158.654888 -84.056418 
L 159.826298 -84.231457 
L 160.997709 -84.406496 
L 162.16912 -84.581535 
L 163.34053 -84.756574 
L 164.511941 -84.931613 
L 165.683351 -85.106652 
L 166.854762 -85.281691 
L 168.026173 -85.45673 
L 169.197583 -85.631769 
L 170.368994 -85.806808 
L 170.368994 -105.837451 
L 170.368994 -105.837451 
L 169.197583 -105.462106 
L 168.026173 -105.08676 
L 166.854762 -104.711415 
L 165.683351 -104.336069 
L 164.511941 -103.960724 
L 163.34053 -103.585379 
L 162.16912 -103.210033 
L 160.997709 -102.834688 
L 159.826298 -102.459342 
L 158.654888 -102.083997 
L 157.483477 -101.708651 
L 156.312066 -101.333306 
L 155.140656 -100.95796 
L 153.969245 -100.582615 
L 152.797834 -100.207269 
L 151.626424 -99.831924 
L 150.455013 -99.456578 
L 149.283602 -99.081233 
L 148.112192 -98.705887 
L 146.940781 -98.330542 
L 145.76937 -97.955196 
L 144.59796 -97.579851 
L 143.426549 -97.204505 
L 142.255138 -96.82916 
L 141.083728 -96.453815 
L 139.912317 -96.078469 
L 138.740906 -95.703124 
L 137.569496 -95.327778 
L 136.398085 -94.952433 
L 135.226674 -94.577087 
L 134.055264 -94.201742 
L 132.883853 -93.826396 
L 131.712442 -93.451051 
L 130.541032 -93.075705 
L 129.369621 -92.70036 
L 128.19821 -92.325014 
L 127.0268 -91.949669 
L 125.855389 -91.574323 
L 124.683978 -91.198978 
L 123.512568 -90.823632 
L 122.341157 -90.448287 
L 121.169746 -90.072941 
L 119.998336 -89.697596 
L 118.826925 -89.32225 
L 117.655514 -88.946905 
L 116.484104 -88.57156 
L 115.312693 -88.196214 
L 114.141283 -87.820869 
L 112.969872 -87.445523 
L 111.798461 -87.070178 
L 110.627051 -86.694832 
L 109.45564 -86.319487 
L 108.284229 -85.944141 
L 107.112819 -85.568796 
L 105.941408 -85.19345 
L 104.769997 -84.818105 
L 103.598587 -84.442759 
L 102.427176 -84.067414 
L 101.255765 -83.692068 
L 100.084355 -83.316723 
L 98.912944 -82.941377 
L 97.741533 -82.566032 
L 96.570123 -82.190686 
L 95.398712 -81.815341 
L 94.227301 -81.439996 
L 93.055891 -81.06465 
L 91.88448 -80.689305 
L 90.713069 -80.313959 
L 89.541659 -79.938614 
L 88.370248 -79.563268 
L 87.198837 -79.187923 
L 86.027427 -78.812577 
L 84.856016 -78.437232 
L 83.684605 -78.061886 
L 82.513195 -77.686541 
L 81.341784 -77.311195 
L 80.170373 -76.93585 
L 78.998963 -76.560504 
L 77.827552 -76.185159 
L 76.656141 -75.809813 
L 75.484731 -75.434468 
L 74.31332 -75.059122 
L 73.141909 -74.683777 
L 71.970499 -74.308431 
L 70.799088 -73.933086 
L 69.627678 -73.557741 
L 68.456267 -73.182395 
L 67.284856 -72.80705 
L 66.113446 -72.431704 
L 64.942035 -72.056359 
L 63.770624 -71.681013 
L 62.599214 -71.305668 
L 61.427803 -70.930322 
L 60.256392 -70.554977 
L 59.084982 -70.179631 
L 57.913571 -69.804286 
L 56.74216 -69.42894 
L 55.57075 -69.053595 
L 54.399339 -68.678249 
L 53.227928 -68.302904 
z
"/>
    </defs>
    <g clip-path="url(#p90845fff67)">
     <use xlink:href="#m1bf21f4509" x="0" y="194.568" style="fill: #4477aa; fill-opacity: 0.12"/>
    </g>
   </g>
   <g id="FillBetweenPolyCollection_2">
    <defs>
     <path id="mc0a9578b80" d="M 53.227928 -109.836019 
L 53.227928 -85.136258 
L 54.399339 -85.384178 
L 55.57075 -85.630511 
L 56.74216 -85.875264 
L 57.913571 -86.118449 
L 59.084982 -86.360073 
L 60.256392 -86.600148 
L 61.427803 -86.838685 
L 62.599214 -87.075693 
L 63.770624 -87.311186 
L 64.942035 -87.545176 
L 66.113446 -87.777673 
L 67.284856 -88.008693 
L 68.456267 -88.238247 
L 69.627678 -88.46635 
L 70.799088 -88.693015 
L 71.970499 -88.918256 
L 73.141909 -89.142089 
L 74.31332 -89.364527 
L 75.484731 -89.585585 
L 76.656141 -89.80528 
L 77.827552 -90.023626 
L 78.998963 -90.240639 
L 80.170373 -90.456335 
L 81.341784 -90.670729 
L 82.513195 -90.883837 
L 83.684605 -91.095677 
L 84.856016 -91.306263 
L 86.027427 -91.515612 
L 87.198837 -91.723741 
L 88.370248 -91.930665 
L 89.541659 -92.136402 
L 90.713069 -92.340967 
L 91.88448 -92.544378 
L 93.055891 -92.746649 
L 94.227301 -92.947799 
L 95.398712 -93.147842 
L 96.570123 -93.346796 
L 97.741533 -93.544676 
L 98.912944 -93.741499 
L 100.084355 -93.937281 
L 101.255765 -94.132037 
L 102.427176 -94.325783 
L 103.598587 -94.518535 
L 104.769997 -94.710309 
L 105.941408 -94.90112 
L 107.112819 -95.090983 
L 108.284229 -95.279913 
L 109.45564 -95.467926 
L 110.627051 -95.655036 
L 111.798461 -95.841258 
L 112.969872 -96.026607 
L 114.141283 -96.211097 
L 115.312693 -96.394742 
L 116.484104 -96.577556 
L 117.655514 -96.759553 
L 118.826925 -96.940747 
L 119.998336 -97.12115 
L 121.169746 -97.300777 
L 122.341157 -97.479641 
L 123.512568 -97.657754 
L 124.683978 -97.83513 
L 125.855389 -98.01178 
L 127.0268 -98.187718 
L 128.19821 -98.362954 
L 129.369621 -98.537503 
L 130.541032 -98.711374 
L 131.712442 -98.88458 
L 132.883853 -99.057132 
L 134.055264 -99.229042 
L 135.226674 -99.40032 
L 136.398085 -99.570978 
L 137.569496 -99.741026 
L 138.740906 -99.910474 
L 139.912317 -100.079334 
L 141.083728 -100.247614 
L 142.255138 -100.415326 
L 143.426549 -100.582479 
L 144.59796 -100.749082 
L 145.76937 -100.915146 
L 146.940781 -101.080678 
L 148.112192 -101.24569 
L 149.283602 -101.410188 
L 150.455013 -101.574183 
L 151.626424 -101.737683 
L 152.797834 -101.900697 
L 153.969245 -102.063232 
L 155.140656 -102.225297 
L 156.312066 -102.3869 
L 157.483477 -102.548049 
L 158.654888 -102.708752 
L 159.826298 -102.869016 
L 160.997709 -103.028848 
L 162.16912 -103.188257 
L 163.34053 -103.347249 
L 164.511941 -103.505831 
L 165.683351 -103.66401 
L 166.854762 -103.821793 
L 168.026173 -103.979186 
L 169.197583 -104.136197 
L 170.368994 -104.292831 
L 170.368994 -144.489273 
L 170.368994 -144.489273 
L 169.197583 -144.107809 
L 168.026173 -143.726721 
L 166.854762 -143.346016 
L 165.683351 -142.965701 
L 164.511941 -142.585782 
L 163.34053 -142.206265 
L 162.16912 -141.827159 
L 160.997709 -141.448469 
L 159.826298 -141.070203 
L 158.654888 -140.692369 
L 157.483477 -140.314973 
L 156.312066 -139.938024 
L 155.140656 -139.561529 
L 153.969245 -139.185496 
L 152.797834 -138.809933 
L 151.626424 -138.434848 
L 150.455013 -138.06025 
L 149.283602 -137.686147 
L 148.112192 -137.312547 
L 146.940781 -136.93946 
L 145.76937 -136.566894 
L 144.59796 -136.19486 
L 143.426549 -135.823365 
L 142.255138 -135.452419 
L 141.083728 -135.082032 
L 139.912317 -134.712215 
L 138.740906 -134.342976 
L 137.569496 -133.974326 
L 136.398085 -133.606276 
L 135.226674 -133.238835 
L 134.055264 -132.872015 
L 132.883853 -132.505827 
L 131.712442 -132.140281 
L 130.541032 -131.775389 
L 129.369621 -131.411162 
L 128.19821 -131.047612 
L 127.0268 -130.68475 
L 125.855389 -130.322589 
L 124.683978 -129.961141 
L 123.512568 -129.600419 
L 122.341157 -129.240433 
L 121.169746 -128.881199 
L 119.998336 -128.522728 
L 118.826925 -128.165033 
L 117.655514 -127.808129 
L 116.484104 -127.452027 
L 115.312693 -127.096743 
L 114.141283 -126.74229 
L 112.969872 -126.388681 
L 111.798461 -126.035932 
L 110.627051 -125.684056 
L 109.45564 -125.333068 
L 108.284229 -124.982983 
L 107.112819 -124.633815 
L 105.941408 -124.28558 
L 104.769997 -123.938292 
L 103.598587 -123.591967 
L 102.427176 -123.246621 
L 101.255765 -122.902269 
L 100.084355 -122.558927 
L 98.912944 -122.21661 
L 97.741533 -121.875335 
L 96.570123 -121.535117 
L 95.398712 -121.195972 
L 94.227301 -120.857918 
L 93.055891 -120.520969 
L 91.88448 -120.185142 
L 90.713069 -119.850454 
L 89.541659 -119.516922 
L 88.370248 -119.18456 
L 87.198837 -118.853386 
L 86.027427 -118.523417 
L 84.856016 -118.194668 
L 83.684605 -117.867155 
L 82.513195 -117.540896 
L 81.341784 -117.215907 
L 80.170373 -116.892203 
L 78.998963 -116.5698 
L 77.827552 -116.248715 
L 76.656141 -115.928962 
L 75.484731 -115.610559 
L 74.31332 -115.293519 
L 73.141909 -114.977859 
L 71.970499 -114.663593 
L 70.799088 -114.350736 
L 69.627678 -114.039303 
L 68.456267 -113.729308 
L 67.284856 -113.420764 
L 66.113446 -113.113685 
L 64.942035 -112.808084 
L 63.770624 -112.503975 
L 62.599214 -112.20137 
L 61.427803 -111.90028 
L 60.256392 -111.600719 
L 59.084982 -111.302695 
L 57.913571 -111.006222 
L 56.74216 -110.711308 
L 55.57075 -110.417963 
L 54.399339 -110.126197 
L 53.227928 -109.836019 
z
"/>
    </defs>
    <g clip-path="url(#p90845fff67)">
     <use xlink:href="#mc0a9578b80" x="0" y="194.568" style="fill: #ee7733; fill-opacity: 0.12"/>
    </g>
   </g>
   <g id="matplotlib.axis_1">
    <g id="xtick_1">
     <g id="line2d_3">
      <defs>
       <path id="ma3827d4d6f" d="M 0 0 
L 0 3.5 
" style="stroke: #000000; stroke-width: 0.8"/>
      </defs>
      <g>
       <use xlink:href="#ma3827d4d6f" x="53.227928" y="152.07" style="stroke: #000000; stroke-width: 0.8"/>
      </g>
     </g>
     <g id="text_1">
      <text style="font-size: 6px; font-family: 'Arial', 'Helvetica', 'DejaVu Sans', sans-serif; text-anchor: middle" x="53.227928" y="163.364688" transform="rotate(-0 53.227928 163.364688)">0</text>
     </g>
    </g>
    <g id="xtick_2">
     <g id="line2d_4">
      <g>
       <use xlink:href="#ma3827d4d6f" x="85.903602" y="152.07" style="stroke: #000000; stroke-width: 0.8"/>
      </g>
     </g>
     <g id="text_2">
      <text style="font-size: 6px; font-family: 'Arial', 'Helvetica', 'DejaVu Sans', sans-serif; text-anchor: middle" x="85.903602" y="163.364688" transform="rotate(-0 85.903602 163.364688)">1</text>
     </g>
    </g>
    <g id="xtick_3">
     <g id="line2d_5">
      <g>
       <use xlink:href="#ma3827d4d6f" x="118.579276" y="152.07" style="stroke: #000000; stroke-width: 0.8"/>
      </g>
     </g>
     <g id="text_3">
      <text style="font-size: 6px; font-family: 'Arial', 'Helvetica', 'DejaVu Sans', sans-serif; text-anchor: middle" x="118.579276" y="163.364688" transform="rotate(-0 118.579276 163.364688)">2</text>
     </g>
    </g>
    <g id="xtick_4">
     <g id="line2d_6">
      <g>
       <use xlink:href="#ma3827d4d6f" x="151.25495" y="152.07" style="stroke: #000000; stroke-width: 0.8"/>
      </g>
     </g>
     <g id="text_4">
      <text style="font-size: 6px; font-family: 'Arial', 'Helvetica', 'DejaVu Sans', sans-serif; text-anchor: middle" x="151.25495" y="163.364688" transform="rotate(-0 151.25495 163.364688)">3</text>
     </g>
    </g>
   </g>
   <g id="matplotlib.axis_2">
    <g id="ytick_1">
     <g id="line2d_7">
      <defs>
       <path id="m4624816ca4" d="M 0 0 
L -3.5 0 
" style="stroke: #000000; stroke-width: 0.8"/>
      </defs>
      <g>
       <use xlink:href="#m4624816ca4" x="47.370875" y="142.355776" style="stroke: #000000; stroke-width: 0.8"/>
      </g>
     </g>
     <g id="text_5">
      <text style="font-size: 6px; font-family: 'Arial', 'Helvetica', 'DejaVu Sans', sans-serif; text-anchor: end" x="40.370875" y="144.50312" transform="rotate(-0 40.370875 144.50312)">−0.05</text>
     </g>
    </g>
    <g id="ytick_2">
     <g id="line2d_8">
      <g>
       <use xlink:href="#m4624816ca4" x="47.370875" y="126.265096" style="stroke: #000000; stroke-width: 0.8"/>
      </g>
     </g>
     <g id="text_6">
      <text style="font-size: 6px; font-family: 'Arial', 'Helvetica', 'DejaVu Sans', sans-serif; text-anchor: end" x="40.370875" y="128.41244" transform="rotate(-0 40.370875 128.41244)">0.00</text>
     </g>
    </g>
    <g id="ytick_3">
     <g id="line2d_9">
      <g>
       <use xlink:href="#m4624816ca4" x="47.370875" y="110.174416" style="stroke: #000000; stroke-width: 0.8"/>
      </g>
     </g>
     <g id="text_7">
      <text style="font-size: 6px; font-family: 'Arial', 'Helvetica', 'DejaVu Sans', sans-serif; text-anchor: end" x="40.370875" y="112.32176" transform="rotate(-0 40.370875 112.32176)">0.05</text>
     </g>
    </g>
    <g id="ytick_4">
     <g id="line2d_10">
      <g>
       <use xlink:href="#m4624816ca4" x="47.370875" y="94.083736" style="stroke: #000000; stroke-width: 0.8"/>
      </g>
     </g>
     <g id="text_8">
      <text style="font-size: 6px; font-family: 'Arial', 'Helvetica', 'DejaVu Sans', sans-serif; text-anchor: end" x="40.370875" y="96.23108" transform="rotate(-0 40.370875 96.23108)">0.10</text>
     </g>
    </g>
    <g id="ytick_5">
     <g id="line2d_11">
      <g>
       <use xlink:href="#m4624816ca4" x="47.370875" y="77.993056" style="stroke: #000000; stroke-width: 0.8"/>
      </g>
     </g>
     <g id="text_9">
      <text style="font-size: 6px; font-family: 'Arial', 'Helvetica', 'DejaVu Sans', sans-serif; text-anchor: end" x="40.370875" y="80.1404" transform="rotate(-0 40.370875 80.1404)">0.15</text>
     </g>
    </g>
    <g id="ytick_6">
     <g id="line2d_12">
      <g>
       <use xlink:href="#m4624816ca4" x="47.370875" y="61.902376" style="stroke: #000000; stroke-width: 0.8"/>
      </g>
     </g>
     <g id="text_10">
      <text style="font-size: 6px; font-family: 'Arial', 'Helvetica', 'DejaVu Sans', sans-serif; text-anchor: end" x="40.370875" y="64.049719" transform="rotate(-0 40.370875 64.049719)">0.20</text>
     </g>
    </g>
    <g id="ytick_7">
     <g id="line2d_13">
      <g>
       <use xlink:href="#m4624816ca4" x="47.370875" y="45.811696" style="stroke: #000000; stroke-width: 0.8"/>
      </g>
     </g>
     <g id="text_11">
      <text style="font-size: 6px; font-family: 'Arial', 'Helvetica', 'DejaVu Sans', sans-serif; text-anchor: end" x="40.370875" y="47.959039" transform="rotate(-0 40.370875 47.959039)">0.25</text>
     </g>
    </g>
    <g id="text_12">
     <text style="font-size: 7px; font-family: 'Arial', 'Helvetica', 'DejaVu Sans', sans-serif" transform="translate(12.210469 130.741) rotate(-90)">Cumulative Citations</text>
     <text style="font-size: 7px; font-family: 'Arial', 'Helvetica', 'DejaVu Sans', sans-serif" transform="translate(19.716656 132.881469) rotate(-90)">(outcome-SD change)</text>
    </g>
   </g>
   <g id="line2d_14">
    <path d="M 53.227928 126.265096 
L 54.399339 125.989904 
L 55.57075 125.714712 
L 56.74216 125.439519 
L 57.913571 125.164327 
L 59.084982 124.889135 
L 60.256392 124.613943 
L 61.427803 124.33875 
L 62.599214 124.063558 
L 63.770624 123.788366 
L 64.942035 123.513174 
L 66.113446 123.237981 
L 67.284856 122.962789 
L 68.456267 122.687597 
L 69.627678 122.412404 
L 70.799088 122.137212 
L 71.970499 121.86202 
L 73.141909 121.586828 
L 74.31332 121.311635 
L 75.484731 121.036443 
L 76.656141 120.761251 
L 77.827552 120.486059 
L 78.998963 120.210866 
L 80.170373 119.935674 
L 81.341784 119.660482 
L 82.513195 119.38529 
L 83.684605 119.110097 
L 84.856016 118.834905 
L 86.027427 118.559713 
L 87.198837 118.284521 
L 88.370248 118.009328 
L 89.541659 117.734136 
L 90.713069 117.458944 
L 91.88448 117.183752 
L 93.055891 116.908559 
L 94.227301 116.633367 
L 95.398712 116.358175 
L 96.570123 116.082983 
L 97.741533 115.80779 
L 98.912944 115.532598 
L 100.084355 115.257406 
L 101.255765 114.982213 
L 102.427176 114.707021 
L 103.598587 114.431829 
L 104.769997 114.156637 
L 105.941408 113.881444 
L 107.112819 113.606252 
L 108.284229 113.33106 
L 109.45564 113.055868 
L 110.627051 112.780675 
L 111.798461 112.505483 
L 112.969872 112.230291 
L 114.141283 111.955099 
L 115.312693 111.679906 
L 116.484104 111.404714 
L 117.655514 111.129522 
L 118.826925 110.85433 
L 119.998336 110.579137 
L 121.169746 110.303945 
L 122.341157 110.028753 
L 123.512568 109.753561 
L 124.683978 109.478368 
L 125.855389 109.203176 
L 127.0268 108.927984 
L 128.19821 108.652792 
L 129.369621 108.377599 
L 130.541032 108.102407 
L 131.712442 107.827215 
L 132.883853 107.552022 
L 134.055264 107.27683 
L 135.226674 107.001638 
L 136.398085 106.726446 
L 137.569496 106.451253 
L 138.740906 106.176061 
L 139.912317 105.900869 
L 141.083728 105.625677 
L 142.255138 105.350484 
L 143.426549 105.075292 
L 144.59796 104.8001 
L 145.76937 104.524908 
L 146.940781 104.249715 
L 148.112192 103.974523 
L 149.283602 103.699331 
L 150.455013 103.424139 
L 151.626424 103.148946 
L 152.797834 102.873754 
L 153.969245 102.598562 
L 155.140656 102.32337 
L 156.312066 102.048177 
L 157.483477 101.772985 
L 158.654888 101.497793 
L 159.826298 101.222601 
L 160.997709 100.947408 
L 162.16912 100.672216 
L 163.34053 100.397024 
L 164.511941 100.121832 
L 165.683351 99.846639 
L 166.854762 99.571447 
L 168.026173 99.296255 
L 169.197583 99.021062 
L 170.368994 98.74587 
" clip-path="url(#p90845fff67)" style="fill: none; stroke: #4477aa; stroke-width: 1.35; stroke-linecap: square"/>
   </g>
   <g id="line2d_15">
    <path d="M 53.227928 97.081861 
L 54.399339 96.812812 
L 55.57075 96.543763 
L 56.74216 96.274714 
L 57.913571 96.005665 
L 59.084982 95.736616 
L 60.256392 95.467567 
L 61.427803 95.198517 
L 62.599214 94.929468 
L 63.770624 94.660419 
L 64.942035 94.39137 
L 66.113446 94.122321 
L 67.284856 93.853272 
L 68.456267 93.584223 
L 69.627678 93.315174 
L 70.799088 93.046124 
L 71.970499 92.777075 
L 73.141909 92.508026 
L 74.31332 92.238977 
L 75.484731 91.969928 
L 76.656141 91.700879 
L 77.827552 91.43183 
L 78.998963 91.16278 
L 80.170373 90.893731 
L 81.341784 90.624682 
L 82.513195 90.355633 
L 83.684605 90.086584 
L 84.856016 89.817535 
L 86.027427 89.548486 
L 87.198837 89.279437 
L 88.370248 89.010387 
L 89.541659 88.741338 
L 90.713069 88.472289 
L 91.88448 88.20324 
L 93.055891 87.934191 
L 94.227301 87.665142 
L 95.398712 87.396093 
L 96.570123 87.127044 
L 97.741533 86.857994 
L 98.912944 86.588945 
L 100.084355 86.319896 
L 101.255765 86.050847 
L 102.427176 85.781798 
L 103.598587 85.512749 
L 104.769997 85.2437 
L 105.941408 84.97465 
L 107.112819 84.705601 
L 108.284229 84.436552 
L 109.45564 84.167503 
L 110.627051 83.898454 
L 111.798461 83.629405 
L 112.969872 83.360356 
L 114.141283 83.091307 
L 115.312693 82.822257 
L 116.484104 82.553208 
L 117.655514 82.284159 
L 118.826925 82.01511 
L 119.998336 81.746061 
L 121.169746 81.477012 
L 122.341157 81.207963 
L 123.512568 80.938914 
L 124.683978 80.669864 
L 125.855389 80.400815 
L 127.0268 80.131766 
L 128.19821 79.862717 
L 129.369621 79.593668 
L 130.541032 79.324619 
L 131.712442 79.05557 
L 132.883853 78.78652 
L 134.055264 78.517471 
L 135.226674 78.248422 
L 136.398085 77.979373 
L 137.569496 77.710324 
L 138.740906 77.441275 
L 139.912317 77.172226 
L 141.083728 76.903177 
L 142.255138 76.634127 
L 143.426549 76.365078 
L 144.59796 76.096029 
L 145.76937 75.82698 
L 146.940781 75.557931 
L 148.112192 75.288882 
L 149.283602 75.019833 
L 150.455013 74.750783 
L 151.626424 74.481734 
L 152.797834 74.212685 
L 153.969245 73.943636 
L 155.140656 73.674587 
L 156.312066 73.405538 
L 157.483477 73.136489 
L 158.654888 72.86744 
L 159.826298 72.59839 
L 160.997709 72.329341 
L 162.16912 72.060292 
L 163.34053 71.791243 
L 164.511941 71.522194 
L 165.683351 71.253145 
L 166.854762 70.984096 
L 168.026173 70.715047 
L 169.197583 70.445997 
L 170.368994 70.176948 
" clip-path="url(#p90845fff67)" style="fill: none; stroke-dasharray: 4.995,2.16; stroke-dashoffset: 0; stroke: #ee7733; stroke-width: 1.35"/>
   </g>
   <g id="patch_3">
    <path d="M 47.370875 152.07 
L 47.370875 45.222 
" style="fill: none; stroke: #000000; stroke-width: 0.7; stroke-linejoin: miter; stroke-linecap: square"/>
   </g>
   <g id="patch_4">
    <path d="M 47.370875 152.07 
L 176.226047 152.07 
" style="fill: none; stroke: #000000; stroke-width: 0.7; stroke-linejoin: miter; stroke-linecap: square"/>
   </g>
   <g id="text_13">
    <text style="font-weight: 700; font-size: 8px; font-family: 'Arial', 'Helvetica', 'DejaVu Sans', sans-serif; text-anchor: start" x="24.176944" y="42.40041" transform="rotate(-0 24.176944 42.40041)">a</text>
   </g>
   <g id="text_14">
    <text style="font-weight: 700; font-size: 7.2px; font-family: 'Arial', 'Helvetica', 'DejaVu Sans', sans-serif" transform="translate(78.428711 33.485825)">GPU Quantity × API</text>
    <!-- Interaction $p$ = 0.943 -->
    <g transform="translate(76.986461 41.222)">
     <text>
      <tspan x="0" y="-0.96875" style="font-weight: 700; font-size: 7.2px; font-family: 'Arial'">I</tspan>
      <tspan x="2.014282" y="-0.96875" style="font-weight: 700; font-size: 7.2px; font-family: 'Arial'">n</tspan>
      <tspan x="6.442871" y="-0.96875" style="font-weight: 700; font-size: 7.2px; font-family: 'Arial'">t</tspan>
      <tspan x="8.857178" y="-0.96875" style="font-weight: 700; font-size: 7.2px; font-family: 'Arial'">e</tspan>
      <tspan x="12.889282" y="-0.96875" style="font-weight: 700; font-size: 7.2px; font-family: 'Arial'">r</tspan>
      <tspan x="15.710693" y="-0.96875" style="font-weight: 700; font-size: 7.2px; font-family: 'Arial'">a</tspan>
      <tspan x="19.742798" y="-0.96875" style="font-weight: 700; font-size: 7.2px; font-family: 'Arial'">c</tspan>
      <tspan x="23.774902" y="-0.96875" style="font-weight: 700; font-size: 7.2px; font-family: 'Arial'">t</tspan>
      <tspan x="26.189209" y="-0.96875" style="font-weight: 700; font-size: 7.2px; font-family: 'Arial'">i</tspan>
      <tspan x="28.203491" y="-0.96875" style="font-weight: 700; font-size: 7.2px; font-family: 'Arial'">o</tspan>
      <tspan x="32.63208" y="-0.96875" style="font-weight: 700; font-size: 7.2px; font-family: 'Arial'">n</tspan>
      <tspan x="37.060669" y="-0.96875" style="font-weight: 700; font-size: 7.2px; font-family: 'Arial'"> </tspan>
      <tspan x="43.677002" y="-0.96875" style="font-weight: 700; font-size: 7.2px; font-family: 'Arial'"> </tspan>
      <tspan x="45.691284" y="-0.96875" style="font-weight: 700; font-size: 7.2px; font-family: 'Arial'">=</tspan>
      <tspan x="49.925171" y="-0.96875" style="font-weight: 700; font-size: 7.2px; font-family: 'Arial'"> </tspan>
      <tspan x="51.939453" y="-0.96875" style="font-weight: 700; font-size: 7.2px; font-family: 'Arial'">0</tspan>
      <tspan x="55.971558" y="-0.96875" style="font-weight: 700; font-size: 7.2px; font-family: 'Arial'">.</tspan>
      <tspan x="57.98584" y="-0.96875" style="font-weight: 700; font-size: 7.2px; font-family: 'Arial'">9</tspan>
      <tspan x="62.017944" y="-0.96875" style="font-weight: 700; font-size: 7.2px; font-family: 'Arial'">4</tspan>
      <tspan x="66.050049" y="-0.96875" style="font-weight: 700; font-size: 7.2px; font-family: 'Arial'">3</tspan>
      <tspan x="39.074951" y="-0.96875" style="font-style: oblique; font-size: 7.2px; font-family: 'DejaVu Sans'">p</tspan>
     </text>
    </g>
   </g>
  </g>
  <g id="axes_2">
   <g id="patch_5">
    <path d="M 207.151289 152.07 
L 336.006461 152.07 
L 336.006461 45.222 
L 207.151289 45.222 
z
" style="fill: #ffffff"/>
   </g>
   <g id="line2d_16">
    <path d="M 207.151289 126.265096 
L 336.006461 126.265096 
" clip-path="url(#pd105cd1b2d)" style="fill: none; stroke: #a0a0a0; stroke-width: 0.6; stroke-linecap: square"/>
   </g>
   <g id="line2d_17">
    <path d="M 252.447712 152.07 
L 252.447712 45.222 
" clip-path="url(#pd105cd1b2d)" style="fill: none; stroke: #d0d0d0; stroke-width: 0.6; stroke-linecap: square"/>
   </g>
   <g id="FillBetweenPolyCollection_3">
    <defs>
     <path id="m4906c7b971" d="M 213.008342 -69.316961 
L 213.008342 -61.941252 
L 214.179753 -62.130202 
L 215.351163 -62.319153 
L 216.522574 -62.508104 
L 217.693985 -62.697055 
L 218.865395 -62.886006 
L 220.036806 -63.074957 
L 221.208217 -63.263908 
L 222.379627 -63.452859 
L 223.551038 -63.64181 
L 224.722449 -63.830761 
L 225.893859 -64.019712 
L 227.06527 -64.208663 
L 228.236681 -64.397614 
L 229.408091 -64.586565 
L 230.579502 -64.775516 
L 231.750913 -64.964467 
L 232.922323 -65.153418 
L 234.093734 -65.342369 
L 235.265145 -65.53132 
L 236.436555 -65.720271 
L 237.607966 -65.909222 
L 238.779377 -66.098173 
L 239.950787 -66.287124 
L 241.122198 -66.476075 
L 242.293609 -66.665026 
L 243.465019 -66.853977 
L 244.63643 -67.042928 
L 245.807841 -67.231879 
L 246.979251 -67.42083 
L 248.150662 -67.609781 
L 249.322072 -67.798732 
L 250.493483 -67.987683 
L 251.664894 -68.176634 
L 252.836304 -68.292912 
L 254.007715 -68.262793 
L 255.179126 -68.232674 
L 256.350536 -68.202555 
L 257.521947 -68.172436 
L 258.693358 -68.142317 
L 259.864768 -68.112198 
L 261.036179 -68.082079 
L 262.20759 -68.05196 
L 263.379 -68.021841 
L 264.550411 -67.991722 
L 265.721822 -67.961603 
L 266.893232 -67.931484 
L 268.064643 -67.901365 
L 269.236054 -67.871245 
L 270.407464 -67.841126 
L 271.578875 -67.811007 
L 272.750286 -67.780888 
L 273.921696 -67.750769 
L 275.093107 -67.72065 
L 276.264518 -67.690531 
L 277.435928 -67.660412 
L 278.607339 -67.630293 
L 279.77875 -67.600174 
L 280.95016 -67.570055 
L 282.121571 -67.539936 
L 283.292982 -67.509817 
L 284.464392 -67.479698 
L 285.635803 -67.449578 
L 286.807214 -67.419459 
L 287.978624 -67.38934 
L 289.150035 -67.359221 
L 290.321446 -67.329102 
L 291.492856 -67.298983 
L 292.664267 -67.268864 
L 293.835678 -67.238745 
L 295.007088 -67.208626 
L 296.178499 -67.178507 
L 297.349909 -67.148388 
L 298.52132 -67.118269 
L 299.692731 -67.08815 
L 300.864141 -67.05803 
L 302.035552 -67.027911 
L 303.206963 -66.997792 
L 304.378373 -66.967673 
L 305.549784 -66.937554 
L 306.721195 -66.907435 
L 307.892605 -66.877316 
L 309.064016 -66.847197 
L 310.235427 -66.817078 
L 311.406837 -66.786959 
L 312.578248 -66.75684 
L 313.749659 -66.726721 
L 314.921069 -66.696602 
L 316.09248 -66.666483 
L 317.263891 -66.636363 
L 318.435301 -66.606244 
L 319.606712 -66.576125 
L 320.778123 -66.546006 
L 321.949533 -66.515887 
L 323.120944 -66.485768 
L 324.292355 -66.455649 
L 325.463765 -66.42553 
L 326.635176 -66.395411 
L 327.806587 -66.365292 
L 328.977997 -66.335173 
L 330.149408 -66.305054 
L 330.149408 -80.836349 
L 330.149408 -80.836349 
L 328.977997 -80.647398 
L 327.806587 -80.458447 
L 326.635176 -80.269496 
L 325.463765 -80.080545 
L 324.292355 -79.891594 
L 323.120944 -79.702643 
L 321.949533 -79.513692 
L 320.778123 -79.324741 
L 319.606712 -79.13579 
L 318.435301 -78.946839 
L 317.263891 -78.757888 
L 316.09248 -78.568937 
L 314.921069 -78.379986 
L 313.749659 -78.191035 
L 312.578248 -78.002084 
L 311.406837 -77.813133 
L 310.235427 -77.624182 
L 309.064016 -77.435231 
L 307.892605 -77.24628 
L 306.721195 -77.057329 
L 305.549784 -76.868378 
L 304.378373 -76.679427 
L 303.206963 -76.490476 
L 302.035552 -76.301526 
L 300.864141 -76.112575 
L 299.692731 -75.923624 
L 298.52132 -75.734673 
L 297.349909 -75.545722 
L 296.178499 -75.356771 
L 295.007088 -75.16782 
L 293.835678 -74.978869 
L 292.664267 -74.789918 
L 291.492856 -74.600967 
L 290.321446 -74.412016 
L 289.150035 -74.223065 
L 287.978624 -74.034114 
L 286.807214 -73.845163 
L 285.635803 -73.656212 
L 284.464392 -73.467261 
L 283.292982 -73.27831 
L 282.121571 -73.089359 
L 280.95016 -72.900408 
L 279.77875 -72.711457 
L 278.607339 -72.522506 
L 277.435928 -72.333555 
L 276.264518 -72.144604 
L 275.093107 -71.955653 
L 273.921696 -71.766702 
L 272.750286 -71.577751 
L 271.578875 -71.3888 
L 270.407464 -71.199849 
L 269.236054 -71.010898 
L 268.064643 -70.821947 
L 266.893232 -70.632996 
L 265.721822 -70.444045 
L 264.550411 -70.255094 
L 263.379 -70.066143 
L 262.20759 -69.877192 
L 261.036179 -69.688241 
L 259.864768 -69.49929 
L 258.693358 -69.310339 
L 257.521947 -69.121389 
L 256.350536 -68.932438 
L 255.179126 -68.743487 
L 254.007715 -68.554536 
L 252.836304 -68.365585 
L 251.664894 -68.323032 
L 250.493483 -68.353151 
L 249.322072 -68.38327 
L 248.150662 -68.413389 
L 246.979251 -68.443508 
L 245.807841 -68.473627 
L 244.63643 -68.503746 
L 243.465019 -68.533865 
L 242.293609 -68.563984 
L 241.122198 -68.594103 
L 239.950787 -68.624222 
L 238.779377 -68.654341 
L 237.607966 -68.68446 
L 236.436555 -68.714579 
L 235.265145 -68.744699 
L 234.093734 -68.774818 
L 232.922323 -68.804937 
L 231.750913 -68.835056 
L 230.579502 -68.865175 
L 229.408091 -68.895294 
L 228.236681 -68.925413 
L 227.06527 -68.955532 
L 225.893859 -68.985651 
L 224.722449 -69.01577 
L 223.551038 -69.045889 
L 222.379627 -69.076008 
L 221.208217 -69.106127 
L 220.036806 -69.136247 
L 218.865395 -69.166366 
L 217.693985 -69.196485 
L 216.522574 -69.226604 
L 215.351163 -69.256723 
L 214.179753 -69.286842 
L 213.008342 -69.316961 
z
"/>
    </defs>
    <g clip-path="url(#pd105cd1b2d)">
     <use xlink:href="#m4906c7b971" x="0" y="194.568" style="fill: #4477aa; fill-opacity: 0.12"/>
    </g>
   </g>
   <g id="FillBetweenPolyCollection_4">
    <defs>
     <path id="m4c649134bf" d="M 213.008342 -109.436521 
L 213.008342 -83.496773 
L 214.179753 -83.593444 
L 215.351163 -83.688395 
L 216.522574 -83.781611 
L 217.693985 -83.873072 
L 218.865395 -83.962762 
L 220.036806 -84.050664 
L 221.208217 -84.136761 
L 222.379627 -84.221039 
L 223.551038 -84.303482 
L 224.722449 -84.384076 
L 225.893859 -84.462808 
L 227.06527 -84.539664 
L 228.236681 -84.614632 
L 229.408091 -84.687701 
L 230.579502 -84.75886 
L 231.750913 -84.8281 
L 232.922323 -84.895411 
L 234.093734 -84.960785 
L 235.265145 -85.024214 
L 236.436555 -85.085693 
L 237.607966 -85.145216 
L 238.779377 -85.202778 
L 239.950787 -85.258376 
L 241.122198 -85.312006 
L 242.293609 -85.363667 
L 243.465019 -85.413358 
L 244.63643 -85.461078 
L 245.807841 -85.50683 
L 246.979251 -85.550615 
L 248.150662 -85.592435 
L 249.322072 -85.632295 
L 250.493483 -85.670199 
L 251.664894 -85.706152 
L 252.836304 -85.740162 
L 254.007715 -85.772236 
L 255.179126 -85.802382 
L 256.350536 -85.830608 
L 257.521947 -85.856926 
L 258.693358 -85.881346 
L 259.864768 -85.903878 
L 261.036179 -85.924536 
L 262.20759 -85.943333 
L 263.379 -85.960281 
L 264.550411 -85.975396 
L 265.721822 -85.988692 
L 266.893232 -86.000186 
L 268.064643 -86.009892 
L 269.236054 -86.017829 
L 270.407464 -86.024013 
L 271.578875 -86.028461 
L 272.750286 -86.031193 
L 273.921696 -86.032226 
L 275.093107 -86.03158 
L 276.264518 -86.029274 
L 277.435928 -86.025328 
L 278.607339 -86.019762 
L 279.77875 -86.012595 
L 280.95016 -86.003849 
L 282.121571 -85.993544 
L 283.292982 -85.981701 
L 284.464392 -85.968341 
L 285.635803 -85.953484 
L 286.807214 -85.937154 
L 287.978624 -85.919369 
L 289.150035 -85.900153 
L 290.321446 -85.879526 
L 291.492856 -85.857509 
L 292.664267 -85.834125 
L 293.835678 -85.809394 
L 295.007088 -85.783337 
L 296.178499 -85.755976 
L 297.349909 -85.727332 
L 298.52132 -85.697426 
L 299.692731 -85.666278 
L 300.864141 -85.63391 
L 302.035552 -85.600341 
L 303.206963 -85.565592 
L 304.378373 -85.529684 
L 305.549784 -85.492636 
L 306.721195 -85.454469 
L 307.892605 -85.415201 
L 309.064016 -85.374852 
L 310.235427 -85.333441 
L 311.406837 -85.290988 
L 312.578248 -85.24751 
L 313.749659 -85.203027 
L 314.921069 -85.157556 
L 316.09248 -85.111116 
L 317.263891 -85.063723 
L 318.435301 -85.015396 
L 319.606712 -84.966152 
L 320.778123 -84.916007 
L 321.949533 -84.864979 
L 323.120944 -84.813082 
L 324.292355 -84.760335 
L 325.463765 -84.706752 
L 326.635176 -84.652349 
L 327.806587 -84.597141 
L 328.977997 -84.541144 
L 330.149408 -84.484372 
L 330.149408 -118.402341 
L 330.149408 -118.402341 
L 328.977997 -118.246034 
L 327.806587 -118.090503 
L 326.635176 -117.935761 
L 325.463765 -117.781824 
L 324.292355 -117.628706 
L 323.120944 -117.476425 
L 321.949533 -117.324994 
L 320.778123 -117.174431 
L 319.606712 -117.024753 
L 318.435301 -116.875974 
L 317.263891 -116.728113 
L 316.09248 -116.581186 
L 314.921069 -116.435212 
L 313.749659 -116.290207 
L 312.578248 -116.146189 
L 311.406837 -116.003177 
L 310.235427 -115.86119 
L 309.064016 -115.720245 
L 307.892605 -115.580362 
L 306.721195 -115.44156 
L 305.549784 -115.303858 
L 304.378373 -115.167276 
L 303.206963 -115.031833 
L 302.035552 -114.897551 
L 300.864141 -114.764448 
L 299.692731 -114.632545 
L 298.52132 -114.501863 
L 297.349909 -114.372423 
L 296.178499 -114.244245 
L 295.007088 -114.117349 
L 293.835678 -113.991759 
L 292.664267 -113.867493 
L 291.492856 -113.744575 
L 290.321446 -113.623024 
L 289.150035 -113.502863 
L 287.978624 -113.384112 
L 286.807214 -113.266794 
L 285.635803 -113.150929 
L 284.464392 -113.036538 
L 283.292982 -112.923644 
L 282.121571 -112.812267 
L 280.95016 -112.702427 
L 279.77875 -112.594147 
L 278.607339 -112.487446 
L 277.435928 -112.382346 
L 276.264518 -112.278865 
L 275.093107 -112.177025 
L 273.921696 -112.076845 
L 272.750286 -111.978344 
L 271.578875 -111.881542 
L 270.407464 -111.786456 
L 269.236054 -111.693106 
L 268.064643 -111.601508 
L 266.893232 -111.511681 
L 265.721822 -111.42364 
L 264.550411 -111.337402 
L 263.379 -111.252983 
L 262.20759 -111.170397 
L 261.036179 -111.089659 
L 259.864768 -111.010783 
L 258.693358 -110.933782 
L 257.521947 -110.858667 
L 256.350536 -110.78545 
L 255.179126 -110.714143 
L 254.007715 -110.644754 
L 252.836304 -110.577294 
L 251.664894 -110.51177 
L 250.493483 -110.448189 
L 249.322072 -110.386559 
L 248.150662 -110.326885 
L 246.979251 -110.269171 
L 245.807841 -110.213421 
L 244.63643 -110.159639 
L 243.465019 -110.107825 
L 242.293609 -110.057982 
L 241.122198 -110.010108 
L 239.950787 -109.964204 
L 238.779377 -109.920268 
L 237.607966 -109.878295 
L 236.436555 -109.838284 
L 235.265145 -109.800229 
L 234.093734 -109.764124 
L 232.922323 -109.729964 
L 231.750913 -109.697741 
L 230.579502 -109.667446 
L 229.408091 -109.639071 
L 228.236681 -109.612606 
L 227.06527 -109.58804 
L 225.893859 -109.565362 
L 224.722449 -109.544559 
L 223.551038 -109.525619 
L 222.379627 -109.508528 
L 221.208217 -109.493272 
L 220.036806 -109.479835 
L 218.865395 -109.468203 
L 217.693985 -109.458359 
L 216.522574 -109.450286 
L 215.351163 -109.443967 
L 214.179753 -109.439385 
L 213.008342 -109.436521 
z
"/>
    </defs>
    <g clip-path="url(#pd105cd1b2d)">
     <use xlink:href="#m4c649134bf" x="0" y="194.568" style="fill: #ee7733; fill-opacity: 0.12"/>
    </g>
   </g>
   <g id="matplotlib.axis_3">
    <g id="xtick_5">
     <g id="line2d_18">
      <g>
       <use xlink:href="#ma3827d4d6f" x="226.023824" y="152.07" style="stroke: #000000; stroke-width: 0.8"/>
      </g>
     </g>
     <g id="text_15">
      <text style="font-size: 6px; font-family: 'Arial', 'Helvetica', 'DejaVu Sans', sans-serif; text-anchor: middle" x="226.023824" y="163.364688" transform="rotate(-0 226.023824 163.364688)">−0.5</text>
     </g>
    </g>
    <g id="xtick_6">
     <g id="line2d_19">
      <g>
       <use xlink:href="#ma3827d4d6f" x="252.447712" y="152.07" style="stroke: #000000; stroke-width: 0.8"/>
      </g>
     </g>
     <g id="text_16">
      <text style="font-size: 6px; font-family: 'Arial', 'Helvetica', 'DejaVu Sans', sans-serif; text-anchor: middle" x="252.447712" y="163.364688" transform="rotate(-0 252.447712 163.364688)">0.0</text>
     </g>
    </g>
    <g id="xtick_7">
     <g id="line2d_20">
      <g>
       <use xlink:href="#ma3827d4d6f" x="278.871601" y="152.07" style="stroke: #000000; stroke-width: 0.8"/>
      </g>
     </g>
     <g id="text_17">
      <text style="font-size: 6px; font-family: 'Arial', 'Helvetica', 'DejaVu Sans', sans-serif; text-anchor: middle" x="278.871601" y="163.364688" transform="rotate(-0 278.871601 163.364688)">0.5</text>
     </g>
    </g>
    <g id="xtick_8">
     <g id="line2d_21">
      <g>
       <use xlink:href="#ma3827d4d6f" x="305.295489" y="152.07" style="stroke: #000000; stroke-width: 0.8"/>
      </g>
     </g>
     <g id="text_18">
      <text style="font-size: 6px; font-family: 'Arial', 'Helvetica', 'DejaVu Sans', sans-serif; text-anchor: middle" x="305.295489" y="163.364688" transform="rotate(-0 305.295489 163.364688)">1.0</text>
     </g>
    </g>
    <g id="xtick_9">
     <g id="line2d_22">
      <g>
       <use xlink:href="#ma3827d4d6f" x="331.719377" y="152.07" style="stroke: #000000; stroke-width: 0.8"/>
      </g>
     </g>
     <g id="text_19">
      <text style="font-size: 6px; font-family: 'Arial', 'Helvetica', 'DejaVu Sans', sans-serif; text-anchor: middle" x="331.719377" y="163.364688" transform="rotate(-0 331.719377 163.364688)">1.5</text>
     </g>
    </g>
   </g>
   <g id="matplotlib.axis_4">
    <g id="ytick_8">
     <g id="line2d_23">
      <g>
       <use xlink:href="#m4624816ca4" x="207.151289" y="142.355776" style="stroke: #000000; stroke-width: 0.8"/>
      </g>
     </g>
    </g>
    <g id="ytick_9">
     <g id="line2d_24">
      <g>
       <use xlink:href="#m4624816ca4" x="207.151289" y="126.265096" style="stroke: #000000; stroke-width: 0.8"/>
      </g>
     </g>
    </g>
    <g id="ytick_10">
     <g id="line2d_25">
      <g>
       <use xlink:href="#m4624816ca4" x="207.151289" y="110.174416" style="stroke: #000000; stroke-width: 0.8"/>
      </g>
     </g>
    </g>
    <g id="ytick_11">
     <g id="line2d_26">
      <g>
       <use xlink:href="#m4624816ca4" x="207.151289" y="94.083736" style="stroke: #000000; stroke-width: 0.8"/>
      </g>
     </g>
    </g>
    <g id="ytick_12">
     <g id="line2d_27">
      <g>
       <use xlink:href="#m4624816ca4" x="207.151289" y="77.993056" style="stroke: #000000; stroke-width: 0.8"/>
      </g>
     </g>
    </g>
    <g id="ytick_13">
     <g id="line2d_28">
      <g>
       <use xlink:href="#m4624816ca4" x="207.151289" y="61.902376" style="stroke: #000000; stroke-width: 0.8"/>
      </g>
     </g>
    </g>
    <g id="ytick_14">
     <g id="line2d_29">
      <g>
       <use xlink:href="#m4624816ca4" x="207.151289" y="45.811696" style="stroke: #000000; stroke-width: 0.8"/>
      </g>
     </g>
    </g>
   </g>
   <g id="line2d_30">
    <path d="M 213.008342 128.938894 
L 214.179753 128.859478 
L 215.351163 128.780062 
L 216.522574 128.700646 
L 217.693985 128.62123 
L 218.865395 128.541814 
L 220.036806 128.462398 
L 221.208217 128.382982 
L 222.379627 128.303566 
L 223.551038 128.22415 
L 224.722449 128.144734 
L 225.893859 128.065318 
L 227.06527 127.985902 
L 228.236681 127.906486 
L 229.408091 127.82707 
L 230.579502 127.747655 
L 231.750913 127.668239 
L 232.922323 127.588823 
L 234.093734 127.509407 
L 235.265145 127.429991 
L 236.436555 127.350575 
L 237.607966 127.271159 
L 238.779377 127.191743 
L 239.950787 127.112327 
L 241.122198 127.032911 
L 242.293609 126.953495 
L 243.465019 126.874079 
L 244.63643 126.794663 
L 245.807841 126.715247 
L 246.979251 126.635831 
L 248.150662 126.556415 
L 249.322072 126.476999 
L 250.493483 126.397583 
L 251.664894 126.318167 
L 252.836304 126.238751 
L 254.007715 126.159335 
L 255.179126 126.07992 
L 256.350536 126.000504 
L 257.521947 125.921088 
L 258.693358 125.841672 
L 259.864768 125.762256 
L 261.036179 125.68284 
L 262.20759 125.603424 
L 263.379 125.524008 
L 264.550411 125.444592 
L 265.721822 125.365176 
L 266.893232 125.28576 
L 268.064643 125.206344 
L 269.236054 125.126928 
L 270.407464 125.047512 
L 271.578875 124.968096 
L 272.750286 124.88868 
L 273.921696 124.809264 
L 275.093107 124.729848 
L 276.264518 124.650432 
L 277.435928 124.571016 
L 278.607339 124.491601 
L 279.77875 124.412185 
L 280.95016 124.332769 
L 282.121571 124.253353 
L 283.292982 124.173937 
L 284.464392 124.094521 
L 285.635803 124.015105 
L 286.807214 123.935689 
L 287.978624 123.856273 
L 289.150035 123.776857 
L 290.321446 123.697441 
L 291.492856 123.618025 
L 292.664267 123.538609 
L 293.835678 123.459193 
L 295.007088 123.379777 
L 296.178499 123.300361 
L 297.349909 123.220945 
L 298.52132 123.141529 
L 299.692731 123.062113 
L 300.864141 122.982697 
L 302.035552 122.903282 
L 303.206963 122.823866 
L 304.378373 122.74445 
L 305.549784 122.665034 
L 306.721195 122.585618 
L 307.892605 122.506202 
L 309.064016 122.426786 
L 310.235427 122.34737 
L 311.406837 122.267954 
L 312.578248 122.188538 
L 313.749659 122.109122 
L 314.921069 122.029706 
L 316.09248 121.95029 
L 317.263891 121.870874 
L 318.435301 121.791458 
L 319.606712 121.712042 
L 320.778123 121.632626 
L 321.949533 121.55321 
L 323.120944 121.473794 
L 324.292355 121.394378 
L 325.463765 121.314963 
L 326.635176 121.235547 
L 327.806587 121.156131 
L 328.977997 121.076715 
L 330.149408 120.997299 
" clip-path="url(#pd105cd1b2d)" style="fill: none; stroke: #4477aa; stroke-width: 1.35; stroke-linecap: square"/>
   </g>
   <g id="line2d_31">
    <path d="M 213.008342 98.101353 
L 214.179753 98.051586 
L 215.351163 98.001819 
L 216.522574 97.952052 
L 217.693985 97.902285 
L 218.865395 97.852518 
L 220.036806 97.80275 
L 221.208217 97.752983 
L 222.379627 97.703216 
L 223.551038 97.653449 
L 224.722449 97.603682 
L 225.893859 97.553915 
L 227.06527 97.504148 
L 228.236681 97.454381 
L 229.408091 97.404614 
L 230.579502 97.354847 
L 231.750913 97.30508 
L 232.922323 97.255312 
L 234.093734 97.205545 
L 235.265145 97.155778 
L 236.436555 97.106011 
L 237.607966 97.056244 
L 238.779377 97.006477 
L 239.950787 96.95671 
L 241.122198 96.906943 
L 242.293609 96.857176 
L 243.465019 96.807409 
L 244.63643 96.757642 
L 245.807841 96.707874 
L 246.979251 96.658107 
L 248.150662 96.60834 
L 249.322072 96.558573 
L 250.493483 96.508806 
L 251.664894 96.459039 
L 252.836304 96.409272 
L 254.007715 96.359505 
L 255.179126 96.309738 
L 256.350536 96.259971 
L 257.521947 96.210204 
L 258.693358 96.160436 
L 259.864768 96.110669 
L 261.036179 96.060902 
L 262.20759 96.011135 
L 263.379 95.961368 
L 264.550411 95.911601 
L 265.721822 95.861834 
L 266.893232 95.812067 
L 268.064643 95.7623 
L 269.236054 95.712533 
L 270.407464 95.662766 
L 271.578875 95.612998 
L 272.750286 95.563231 
L 273.921696 95.513464 
L 275.093107 95.463697 
L 276.264518 95.41393 
L 277.435928 95.364163 
L 278.607339 95.314396 
L 279.77875 95.264629 
L 280.95016 95.214862 
L 282.121571 95.165095 
L 283.292982 95.115328 
L 284.464392 95.06556 
L 285.635803 95.015793 
L 286.807214 94.966026 
L 287.978624 94.916259 
L 289.150035 94.866492 
L 290.321446 94.816725 
L 291.492856 94.766958 
L 292.664267 94.717191 
L 293.835678 94.667424 
L 295.007088 94.617657 
L 296.178499 94.56789 
L 297.349909 94.518122 
L 298.52132 94.468355 
L 299.692731 94.418588 
L 300.864141 94.368821 
L 302.035552 94.319054 
L 303.206963 94.269287 
L 304.378373 94.21952 
L 305.549784 94.169753 
L 306.721195 94.119986 
L 307.892605 94.070219 
L 309.064016 94.020452 
L 310.235427 93.970684 
L 311.406837 93.920917 
L 312.578248 93.87115 
L 313.749659 93.821383 
L 314.921069 93.771616 
L 316.09248 93.721849 
L 317.263891 93.672082 
L 318.435301 93.622315 
L 319.606712 93.572548 
L 320.778123 93.522781 
L 321.949533 93.473014 
L 323.120944 93.423246 
L 324.292355 93.373479 
L 325.463765 93.323712 
L 326.635176 93.273945 
L 327.806587 93.224178 
L 328.977997 93.174411 
L 330.149408 93.124644 
" clip-path="url(#pd105cd1b2d)" style="fill: none; stroke-dasharray: 4.995,2.16; stroke-dashoffset: 0; stroke: #ee7733; stroke-width: 1.35"/>
   </g>
   <g id="patch_6">
    <path d="M 207.151289 152.07 
L 207.151289 45.222 
" style="fill: none; stroke: #000000; stroke-width: 0.7; stroke-linejoin: miter; stroke-linecap: square"/>
   </g>
   <g id="patch_7">
    <path d="M 207.151289 152.07 
L 336.006461 152.07 
" style="fill: none; stroke: #000000; stroke-width: 0.7; stroke-linejoin: miter; stroke-linecap: square"/>
   </g>
   <g id="text_20">
    <text style="font-weight: 700; font-size: 8px; font-family: 'Arial', 'Helvetica', 'DejaVu Sans', sans-serif; text-anchor: start" x="183.957358" y="42.40041" transform="rotate(-0 183.957358 42.40041)">b</text>
   </g>
   <g id="text_21">
    <text style="font-weight: 700; font-size: 7.2px; font-family: 'Arial', 'Helvetica', 'DejaVu Sans', sans-serif" transform="translate(223.796187 33.580325)">Per-GPU Performance × API</text>
    <!-- Interaction $p$ = 0.738 -->
    <g transform="translate(236.766875 41.222)">
     <text>
      <tspan x="0" y="-0.96875" style="font-weight: 700; font-size: 7.2px; font-family: 'Arial'">I</tspan>
      <tspan x="2.014282" y="-0.96875" style="font-weight: 700; font-size: 7.2px; font-family: 'Arial'">n</tspan>
      <tspan x="6.442871" y="-0.96875" style="font-weight: 700; font-size: 7.2px; font-family: 'Arial'">t</tspan>
      <tspan x="8.857178" y="-0.96875" style="font-weight: 700; font-size: 7.2px; font-family: 'Arial'">e</tspan>
      <tspan x="12.889282" y="-0.96875" style="font-weight: 700; font-size: 7.2px; font-family: 'Arial'">r</tspan>
      <tspan x="15.710693" y="-0.96875" style="font-weight: 700; font-size: 7.2px; font-family: 'Arial'">a</tspan>
      <tspan x="19.742798" y="-0.96875" style="font-weight: 700; font-size: 7.2px; font-family: 'Arial'">c</tspan>
      <tspan x="23.774902" y="-0.96875" style="font-weight: 700; font-size: 7.2px; font-family: 'Arial'">t</tspan>
      <tspan x="26.189209" y="-0.96875" style="font-weight: 700; font-size: 7.2px; font-family: 'Arial'">i</tspan>
      <tspan x="28.203491" y="-0.96875" style="font-weight: 700; font-size: 7.2px; font-family: 'Arial'">o</tspan>
      <tspan x="32.63208" y="-0.96875" style="font-weight: 700; font-size: 7.2px; font-family: 'Arial'">n</tspan>
      <tspan x="37.060669" y="-0.96875" style="font-weight: 700; font-size: 7.2px; font-family: 'Arial'"> </tspan>
      <tspan x="43.677002" y="-0.96875" style="font-weight: 700; font-size: 7.2px; font-family: 'Arial'"> </tspan>
      <tspan x="45.691284" y="-0.96875" style="font-weight: 700; font-size: 7.2px; font-family: 'Arial'">=</tspan>
      <tspan x="49.925171" y="-0.96875" style="font-weight: 700; font-size: 7.2px; font-family: 'Arial'"> </tspan>
      <tspan x="51.939453" y="-0.96875" style="font-weight: 700; font-size: 7.2px; font-family: 'Arial'">0</tspan>
      <tspan x="55.971558" y="-0.96875" style="font-weight: 700; font-size: 7.2px; font-family: 'Arial'">.</tspan>
      <tspan x="57.98584" y="-0.96875" style="font-weight: 700; font-size: 7.2px; font-family: 'Arial'">7</tspan>
      <tspan x="62.017944" y="-0.96875" style="font-weight: 700; font-size: 7.2px; font-family: 'Arial'">3</tspan>
      <tspan x="66.050049" y="-0.96875" style="font-weight: 700; font-size: 7.2px; font-family: 'Arial'">8</tspan>
      <tspan x="39.074951" y="-0.96875" style="font-style: oblique; font-size: 7.2px; font-family: 'DejaVu Sans'">p</tspan>
     </text>
    </g>
   </g>
  </g>
  <g id="axes_3">
   <g id="patch_8">
    <path d="M 366.931703 152.07 
L 495.786875 152.07 
L 495.786875 45.222 
L 366.931703 45.222 
z
" style="fill: #ffffff"/>
   </g>
   <g id="line2d_32">
    <path d="M 366.931703 126.265096 
L 495.786875 126.265096 
" clip-path="url(#pff43305dec)" style="fill: none; stroke: #a0a0a0; stroke-width: 0.6; stroke-linecap: square"/>
   </g>
   <g id="line2d_33">
    <path d="M 418.848511 152.07 
L 418.848511 45.222 
" clip-path="url(#pff43305dec)" style="fill: none; stroke: #d0d0d0; stroke-width: 0.6; stroke-linecap: square"/>
   </g>
   <g id="FillBetweenPolyCollection_5">
    <defs>
     <path id="m9457d66735" d="M 372.788756 -58.053199 
L 372.788756 -47.354727 
L 373.960167 -47.88749 
L 375.131577 -48.420253 
L 376.302988 -48.953015 
L 377.474399 -49.485778 
L 378.645809 -50.018541 
L 379.81722 -50.551303 
L 380.98863 -51.084066 
L 382.160041 -51.616828 
L 383.331452 -52.149591 
L 384.502862 -52.682354 
L 385.674273 -53.215116 
L 386.845684 -53.747879 
L 388.017094 -54.280642 
L 389.188505 -54.813404 
L 390.359916 -55.346167 
L 391.531326 -55.87893 
L 392.702737 -56.411692 
L 393.874148 -56.944455 
L 395.045558 -57.477218 
L 396.216969 -58.00998 
L 397.38838 -58.542743 
L 398.55979 -59.075506 
L 399.731201 -59.608268 
L 400.902612 -60.141031 
L 402.074022 -60.673794 
L 403.245433 -61.206556 
L 404.416844 -61.739319 
L 405.588254 -62.272082 
L 406.759665 -62.804844 
L 407.931076 -63.337607 
L 409.102486 -63.870369 
L 410.273897 -64.403132 
L 411.445308 -64.935895 
L 412.616718 -65.468657 
L 413.788129 -66.00142 
L 414.95954 -66.534183 
L 416.13095 -67.066945 
L 417.302361 -67.599708 
L 418.473772 -68.132471 
L 419.645182 -68.480188 
L 420.816593 -68.740862 
L 421.988004 -69.001537 
L 423.159414 -69.262212 
L 424.330825 -69.522886 
L 425.502236 -69.783561 
L 426.673646 -70.044236 
L 427.845057 -70.304911 
L 429.016467 -70.565585 
L 430.187878 -70.82626 
L 431.359289 -71.086935 
L 432.530699 -71.347609 
L 433.70211 -71.608284 
L 434.873521 -71.868959 
L 436.044931 -72.129633 
L 437.216342 -72.390308 
L 438.387753 -72.650983 
L 439.559163 -72.911658 
L 440.730574 -73.172332 
L 441.901985 -73.433007 
L 443.073395 -73.693682 
L 444.244806 -73.954356 
L 445.416217 -74.215031 
L 446.587627 -74.475706 
L 447.759038 -74.736381 
L 448.930449 -74.997055 
L 450.101859 -75.25773 
L 451.27327 -75.518405 
L 452.444681 -75.779079 
L 453.616091 -76.039754 
L 454.787502 -76.300429 
L 455.958913 -76.561104 
L 457.130323 -76.821778 
L 458.301734 -77.082453 
L 459.473145 -77.343128 
L 460.644555 -77.603802 
L 461.815966 -77.864477 
L 462.987377 -78.125152 
L 464.158787 -78.385827 
L 465.330198 -78.646501 
L 466.501609 -78.907176 
L 467.673019 -79.167851 
L 468.84443 -79.428525 
L 470.015841 -79.6892 
L 471.187251 -79.949875 
L 472.358662 -80.210549 
L 473.530072 -80.471224 
L 474.701483 -80.731899 
L 475.872894 -80.992574 
L 477.044304 -81.253248 
L 478.215715 -81.513923 
L 479.387126 -81.774598 
L 480.558536 -82.035272 
L 481.729947 -82.295947 
L 482.901358 -82.556622 
L 484.072768 -82.817297 
L 485.244179 -83.077971 
L 486.41559 -83.338646 
L 487.587 -83.599321 
L 488.758411 -83.859995 
L 489.929822 -84.12067 
L 489.929822 -100.630992 
L 489.929822 -100.630992 
L 488.758411 -100.09823 
L 487.587 -99.565467 
L 486.41559 -99.032704 
L 485.244179 -98.499942 
L 484.072768 -97.967179 
L 482.901358 -97.434417 
L 481.729947 -96.901654 
L 480.558536 -96.368891 
L 479.387126 -95.836129 
L 478.215715 -95.303366 
L 477.044304 -94.770603 
L 475.872894 -94.237841 
L 474.701483 -93.705078 
L 473.530072 -93.172315 
L 472.358662 -92.639553 
L 471.187251 -92.10679 
L 470.015841 -91.574027 
L 468.84443 -91.041265 
L 467.673019 -90.508502 
L 466.501609 -89.975739 
L 465.330198 -89.442977 
L 464.158787 -88.910214 
L 462.987377 -88.377451 
L 461.815966 -87.844689 
L 460.644555 -87.311926 
L 459.473145 -86.779164 
L 458.301734 -86.246401 
L 457.130323 -85.713638 
L 455.958913 -85.180876 
L 454.787502 -84.648113 
L 453.616091 -84.11535 
L 452.444681 -83.582588 
L 451.27327 -83.049825 
L 450.101859 -82.517062 
L 448.930449 -81.9843 
L 447.759038 -81.451537 
L 446.587627 -80.918774 
L 445.416217 -80.386012 
L 444.244806 -79.853249 
L 443.073395 -79.320486 
L 441.901985 -78.787724 
L 440.730574 -78.254961 
L 439.559163 -77.722198 
L 438.387753 -77.189436 
L 437.216342 -76.656673 
L 436.044931 -76.12391 
L 434.873521 -75.591148 
L 433.70211 -75.058385 
L 432.530699 -74.525623 
L 431.359289 -73.99286 
L 430.187878 -73.460097 
L 429.016467 -72.927335 
L 427.845057 -72.394572 
L 426.673646 -71.861809 
L 425.502236 -71.329047 
L 424.330825 -70.796284 
L 423.159414 -70.263521 
L 421.988004 -69.730759 
L 420.816593 -69.197996 
L 419.645182 -68.665233 
L 418.473772 -68.219513 
L 417.302361 -67.958838 
L 416.13095 -67.698163 
L 414.95954 -67.437489 
L 413.788129 -67.176814 
L 412.616718 -66.916139 
L 411.445308 -66.655465 
L 410.273897 -66.39479 
L 409.102486 -66.134115 
L 407.931076 -65.87344 
L 406.759665 -65.612766 
L 405.588254 -65.352091 
L 404.416844 -65.091416 
L 403.245433 -64.830742 
L 402.074022 -64.570067 
L 400.902612 -64.309392 
L 399.731201 -64.048718 
L 398.55979 -63.788043 
L 397.38838 -63.527368 
L 396.216969 -63.266693 
L 395.045558 -63.006019 
L 393.874148 -62.745344 
L 392.702737 -62.484669 
L 391.531326 -62.223995 
L 390.359916 -61.96332 
L 389.188505 -61.702645 
L 388.017094 -61.44197 
L 386.845684 -61.181296 
L 385.674273 -60.920621 
L 384.502862 -60.659946 
L 383.331452 -60.399272 
L 382.160041 -60.138597 
L 380.98863 -59.877922 
L 379.81722 -59.617247 
L 378.645809 -59.356573 
L 377.474399 -59.095898 
L 376.302988 -58.835223 
L 375.131577 -58.574549 
L 373.960167 -58.313874 
L 372.788756 -58.053199 
z
"/>
    </defs>
    <g clip-path="url(#pff43305dec)">
     <use xlink:href="#m9457d66735" x="0" y="194.568" style="fill: #4477aa; fill-opacity: 0.12"/>
    </g>
   </g>
   <g id="FillBetweenPolyCollection_6">
    <defs>
     <path id="ma5ff95c6cd" d="M 372.788756 -96.963191 
L 372.788756 -65.494869 
L 373.960167 -66.040126 
L 375.131577 -66.582197 
L 376.302988 -67.120993 
L 377.474399 -67.656428 
L 378.645809 -68.188413 
L 379.81722 -68.71686 
L 380.98863 -69.241679 
L 382.160041 -69.76278 
L 383.331452 -70.280073 
L 384.502862 -70.793469 
L 385.674273 -71.302878 
L 386.845684 -71.808212 
L 388.017094 -72.309382 
L 389.188505 -72.806303 
L 390.359916 -73.298889 
L 391.531326 -73.787057 
L 392.702737 -74.270725 
L 393.874148 -74.749817 
L 395.045558 -75.224254 
L 396.216969 -75.693966 
L 397.38838 -76.158882 
L 398.55979 -76.618937 
L 399.731201 -77.074071 
L 400.902612 -77.524226 
L 402.074022 -77.96935 
L 403.245433 -78.409397 
L 404.416844 -78.844324 
L 405.588254 -79.274095 
L 406.759665 -79.69868 
L 407.931076 -80.118054 
L 409.102486 -80.532198 
L 410.273897 -80.9411 
L 411.445308 -81.344754 
L 412.616718 -81.743159 
L 413.788129 -82.136322 
L 414.95954 -82.524256 
L 416.13095 -82.906978 
L 417.302361 -83.284513 
L 418.473772 -83.656893 
L 419.645182 -84.024152 
L 420.816593 -84.386334 
L 421.988004 -84.743484 
L 423.159414 -85.095655 
L 424.330825 -85.442904 
L 425.502236 -85.785291 
L 426.673646 -86.122883 
L 427.845057 -86.455748 
L 429.016467 -86.783958 
L 430.187878 -87.10759 
L 431.359289 -87.426723 
L 432.530699 -87.741436 
L 433.70211 -88.051814 
L 434.873521 -88.357942 
L 436.044931 -88.659905 
L 437.216342 -88.957793 
L 438.387753 -89.251692 
L 439.559163 -89.541694 
L 440.730574 -89.827887 
L 441.901985 -90.110361 
L 443.073395 -90.389207 
L 444.244806 -90.664513 
L 445.416217 -90.936369 
L 446.587627 -91.204862 
L 447.759038 -91.470081 
L 448.930449 -91.732111 
L 450.101859 -91.991039 
L 451.27327 -92.246947 
L 452.444681 -92.499919 
L 453.616091 -92.750036 
L 454.787502 -92.997378 
L 455.958913 -93.242023 
L 457.130323 -93.484047 
L 458.301734 -93.723526 
L 459.473145 -93.960532 
L 460.644555 -94.195137 
L 461.815966 -94.42741 
L 462.987377 -94.65742 
L 464.158787 -94.885233 
L 465.330198 -95.110912 
L 466.501609 -95.334522 
L 467.673019 -95.556121 
L 468.84443 -95.775771 
L 470.015841 -95.993527 
L 471.187251 -96.209446 
L 472.358662 -96.423583 
L 473.530072 -96.635988 
L 474.701483 -96.846714 
L 475.872894 -97.05581 
L 477.044304 -97.263324 
L 478.215715 -97.469301 
L 479.387126 -97.673788 
L 480.558536 -97.876826 
L 481.729947 -98.078459 
L 482.901358 -98.278727 
L 484.072768 -98.47767 
L 485.244179 -98.675326 
L 486.41559 -98.871732 
L 487.587 -99.066923 
L 488.758411 -99.260935 
L 489.929822 -99.4538 
L 489.929822 -143.730213 
L 489.929822 -143.730213 
L 488.758411 -143.115819 
L 487.587 -142.502571 
L 486.41559 -141.890503 
L 485.244179 -141.279649 
L 484.072768 -140.670045 
L 482.901358 -140.061729 
L 481.729947 -139.454738 
L 480.558536 -138.849111 
L 479.387126 -138.24489 
L 478.215715 -137.642117 
L 477.044304 -137.040835 
L 475.872894 -136.441089 
L 474.701483 -135.842925 
L 473.530072 -135.246392 
L 472.358662 -134.651538 
L 471.187251 -134.058414 
L 470.015841 -133.467074 
L 468.84443 -132.877571 
L 467.673019 -132.289961 
L 466.501609 -131.704301 
L 465.330198 -131.120651 
L 464.158787 -130.539071 
L 462.987377 -129.959624 
L 461.815966 -129.382374 
L 460.644555 -128.807388 
L 459.473145 -128.234734 
L 458.301734 -127.66448 
L 457.130323 -127.096699 
L 455.958913 -126.531464 
L 454.787502 -125.968849 
L 453.616091 -125.408932 
L 452.444681 -124.851789 
L 451.27327 -124.297502 
L 450.101859 -123.746151 
L 448.930449 -123.197818 
L 447.759038 -122.652589 
L 446.587627 -122.110548 
L 445.416217 -121.571782 
L 444.244806 -121.036378 
L 443.073395 -120.504425 
L 441.901985 -119.976011 
L 440.730574 -119.451226 
L 439.559163 -118.930159 
L 438.387753 -118.412901 
L 437.216342 -117.899542 
L 436.044931 -117.390169 
L 434.873521 -116.884873 
L 433.70211 -116.383741 
L 432.530699 -115.88686 
L 431.359289 -115.394314 
L 430.187878 -114.906186 
L 429.016467 -114.422559 
L 427.845057 -113.94351 
L 426.673646 -113.469115 
L 425.502236 -112.999447 
L 424.330825 -112.534575 
L 423.159414 -112.074564 
L 421.988004 -111.619476 
L 420.816593 -111.169367 
L 419.645182 -110.724289 
L 418.473772 -110.284289 
L 417.302361 -109.849409 
L 416.13095 -109.419685 
L 414.95954 -108.995147 
L 413.788129 -108.575821 
L 412.616718 -108.161725 
L 411.445308 -107.75287 
L 410.273897 -107.349265 
L 409.102486 -106.950907 
L 407.931076 -106.557792 
L 406.759665 -106.169906 
L 405.588254 -105.787232 
L 404.416844 -105.409743 
L 403.245433 -105.037411 
L 402.074022 -104.670198 
L 400.902612 -104.308062 
L 399.731201 -103.950958 
L 398.55979 -103.598832 
L 397.38838 -103.251628 
L 396.216969 -102.909285 
L 395.045558 -102.571737 
L 393.874148 -102.238915 
L 392.702737 -101.910746 
L 391.531326 -101.587156 
L 390.359916 -101.268064 
L 389.188505 -100.95339 
L 388.017094 -100.643052 
L 386.845684 -100.336962 
L 385.674273 -100.035037 
L 384.502862 -99.737186 
L 383.331452 -99.443322 
L 382.160041 -99.153356 
L 380.98863 -98.867197 
L 379.81722 -98.584757 
L 378.645809 -98.305944 
L 377.474399 -98.030669 
L 376.302988 -97.758845 
L 375.131577 -97.490382 
L 373.960167 -97.225193 
L 372.788756 -96.963191 
z
"/>
    </defs>
    <g clip-path="url(#pff43305dec)">
     <use xlink:href="#ma5ff95c6cd" x="0" y="194.568" style="fill: #ee7733; fill-opacity: 0.12"/>
    </g>
   </g>
   <g id="matplotlib.axis_5">
    <g id="xtick_10">
     <g id="line2d_34">
      <g>
       <use xlink:href="#ma3827d4d6f" x="377.925818" y="152.07" style="stroke: #000000; stroke-width: 0.8"/>
      </g>
     </g>
     <g id="text_22">
      <text style="font-size: 6px; font-family: 'Arial', 'Helvetica', 'DejaVu Sans', sans-serif; text-anchor: middle" x="377.925818" y="163.364688" transform="rotate(-0 377.925818 163.364688)">−1.0</text>
     </g>
    </g>
    <g id="xtick_11">
     <g id="line2d_35">
      <g>
       <use xlink:href="#ma3827d4d6f" x="398.387164" y="152.07" style="stroke: #000000; stroke-width: 0.8"/>
      </g>
     </g>
     <g id="text_23">
      <text style="font-size: 6px; font-family: 'Arial', 'Helvetica', 'DejaVu Sans', sans-serif; text-anchor: middle" x="398.387164" y="163.364688" transform="rotate(-0 398.387164 163.364688)">−0.5</text>
     </g>
    </g>
    <g id="xtick_12">
     <g id="line2d_36">
      <g>
       <use xlink:href="#ma3827d4d6f" x="418.848511" y="152.07" style="stroke: #000000; stroke-width: 0.8"/>
      </g>
     </g>
     <g id="text_24">
      <text style="font-size: 6px; font-family: 'Arial', 'Helvetica', 'DejaVu Sans', sans-serif; text-anchor: middle" x="418.848511" y="163.364688" transform="rotate(-0 418.848511 163.364688)">0.0</text>
     </g>
    </g>
    <g id="xtick_13">
     <g id="line2d_37">
      <g>
       <use xlink:href="#ma3827d4d6f" x="439.309858" y="152.07" style="stroke: #000000; stroke-width: 0.8"/>
      </g>
     </g>
     <g id="text_25">
      <text style="font-size: 6px; font-family: 'Arial', 'Helvetica', 'DejaVu Sans', sans-serif; text-anchor: middle" x="439.309858" y="163.364688" transform="rotate(-0 439.309858 163.364688)">0.5</text>
     </g>
    </g>
    <g id="xtick_14">
     <g id="line2d_38">
      <g>
       <use xlink:href="#ma3827d4d6f" x="459.771205" y="152.07" style="stroke: #000000; stroke-width: 0.8"/>
      </g>
     </g>
     <g id="text_26">
      <text style="font-size: 6px; font-family: 'Arial', 'Helvetica', 'DejaVu Sans', sans-serif; text-anchor: middle" x="459.771205" y="163.364688" transform="rotate(-0 459.771205 163.364688)">1.0</text>
     </g>
    </g>
    <g id="xtick_15">
     <g id="line2d_39">
      <g>
       <use xlink:href="#ma3827d4d6f" x="480.232551" y="152.07" style="stroke: #000000; stroke-width: 0.8"/>
      </g>
     </g>
     <g id="text_27">
      <text style="font-size: 6px; font-family: 'Arial', 'Helvetica', 'DejaVu Sans', sans-serif; text-anchor: middle" x="480.232551" y="163.364688" transform="rotate(-0 480.232551 163.364688)">1.5</text>
     </g>
    </g>
   </g>
   <g id="matplotlib.axis_6">
    <g id="ytick_15">
     <g id="line2d_40">
      <g>
       <use xlink:href="#m4624816ca4" x="366.931703" y="142.355776" style="stroke: #000000; stroke-width: 0.8"/>
      </g>
     </g>
    </g>
    <g id="ytick_16">
     <g id="line2d_41">
      <g>
       <use xlink:href="#m4624816ca4" x="366.931703" y="126.265096" style="stroke: #000000; stroke-width: 0.8"/>
      </g>
     </g>
    </g>
    <g id="ytick_17">
     <g id="line2d_42">
      <g>
       <use xlink:href="#m4624816ca4" x="366.931703" y="110.174416" style="stroke: #000000; stroke-width: 0.8"/>
      </g>
     </g>
    </g>
    <g id="ytick_18">
     <g id="line2d_43">
      <g>
       <use xlink:href="#m4624816ca4" x="366.931703" y="94.083736" style="stroke: #000000; stroke-width: 0.8"/>
      </g>
     </g>
    </g>
    <g id="ytick_19">
     <g id="line2d_44">
      <g>
       <use xlink:href="#m4624816ca4" x="366.931703" y="77.993056" style="stroke: #000000; stroke-width: 0.8"/>
      </g>
     </g>
    </g>
    <g id="ytick_20">
     <g id="line2d_45">
      <g>
       <use xlink:href="#m4624816ca4" x="366.931703" y="61.902376" style="stroke: #000000; stroke-width: 0.8"/>
      </g>
     </g>
    </g>
    <g id="ytick_21">
     <g id="line2d_46">
      <g>
       <use xlink:href="#m4624816ca4" x="366.931703" y="45.811696" style="stroke: #000000; stroke-width: 0.8"/>
      </g>
     </g>
    </g>
   </g>
   <g id="line2d_47">
    <path d="M 372.788756 141.864037 
L 373.960167 141.467318 
L 375.131577 141.070599 
L 376.302988 140.673881 
L 377.474399 140.277162 
L 378.645809 139.880443 
L 379.81722 139.483725 
L 380.98863 139.087006 
L 382.160041 138.690287 
L 383.331452 138.293569 
L 384.502862 137.89685 
L 385.674273 137.500131 
L 386.845684 137.103413 
L 388.017094 136.706694 
L 389.188505 136.309975 
L 390.359916 135.913257 
L 391.531326 135.516538 
L 392.702737 135.119819 
L 393.874148 134.723101 
L 395.045558 134.326382 
L 396.216969 133.929663 
L 397.38838 133.532944 
L 398.55979 133.136226 
L 399.731201 132.739507 
L 400.902612 132.342788 
L 402.074022 131.94607 
L 403.245433 131.549351 
L 404.416844 131.152632 
L 405.588254 130.755914 
L 406.759665 130.359195 
L 407.931076 129.962476 
L 409.102486 129.565758 
L 410.273897 129.169039 
L 411.445308 128.77232 
L 412.616718 128.375602 
L 413.788129 127.978883 
L 414.95954 127.582164 
L 416.13095 127.185446 
L 417.302361 126.788727 
L 418.473772 126.392008 
L 419.645182 125.99529 
L 420.816593 125.598571 
L 421.988004 125.201852 
L 423.159414 124.805134 
L 424.330825 124.408415 
L 425.502236 124.011696 
L 426.673646 123.614977 
L 427.845057 123.218259 
L 429.016467 122.82154 
L 430.187878 122.424821 
L 431.359289 122.028103 
L 432.530699 121.631384 
L 433.70211 121.234665 
L 434.873521 120.837947 
L 436.044931 120.441228 
L 437.216342 120.044509 
L 438.387753 119.647791 
L 439.559163 119.251072 
L 440.730574 118.854353 
L 441.901985 118.457635 
L 443.073395 118.060916 
L 444.244806 117.664197 
L 445.416217 117.267479 
L 446.587627 116.87076 
L 447.759038 116.474041 
L 448.930449 116.077323 
L 450.101859 115.680604 
L 451.27327 115.283885 
L 452.444681 114.887166 
L 453.616091 114.490448 
L 454.787502 114.093729 
L 455.958913 113.69701 
L 457.130323 113.300292 
L 458.301734 112.903573 
L 459.473145 112.506854 
L 460.644555 112.110136 
L 461.815966 111.713417 
L 462.987377 111.316698 
L 464.158787 110.91998 
L 465.330198 110.523261 
L 466.501609 110.126542 
L 467.673019 109.729824 
L 468.84443 109.333105 
L 470.015841 108.936386 
L 471.187251 108.539668 
L 472.358662 108.142949 
L 473.530072 107.74623 
L 474.701483 107.349512 
L 475.872894 106.952793 
L 477.044304 106.556074 
L 478.215715 106.159356 
L 479.387126 105.762637 
L 480.558536 105.365918 
L 481.729947 104.969199 
L 482.901358 104.572481 
L 484.072768 104.175762 
L 485.244179 103.779043 
L 486.41559 103.382325 
L 487.587 102.985606 
L 488.758411 102.588887 
L 489.929822 102.192169 
" clip-path="url(#pff43305dec)" style="fill: none; stroke: #4477aa; stroke-width: 1.35; stroke-linecap: square"/>
   </g>
   <g id="line2d_48">
    <path d="M 372.788756 113.33897 
L 373.960167 112.93534 
L 375.131577 112.531711 
L 376.302988 112.128081 
L 377.474399 111.724451 
L 378.645809 111.320821 
L 379.81722 110.917192 
L 380.98863 110.513562 
L 382.160041 110.109932 
L 383.331452 109.706302 
L 384.502862 109.302673 
L 385.674273 108.899043 
L 386.845684 108.495413 
L 388.017094 108.091783 
L 389.188505 107.688153 
L 390.359916 107.284524 
L 391.531326 106.880894 
L 392.702737 106.477264 
L 393.874148 106.073634 
L 395.045558 105.670005 
L 396.216969 105.266375 
L 397.38838 104.862745 
L 398.55979 104.459115 
L 399.731201 104.055486 
L 400.902612 103.651856 
L 402.074022 103.248226 
L 403.245433 102.844596 
L 404.416844 102.440966 
L 405.588254 102.037337 
L 406.759665 101.633707 
L 407.931076 101.230077 
L 409.102486 100.826447 
L 410.273897 100.422818 
L 411.445308 100.019188 
L 412.616718 99.615558 
L 413.788129 99.211928 
L 414.95954 98.808299 
L 416.13095 98.404669 
L 417.302361 98.001039 
L 418.473772 97.597409 
L 419.645182 97.193779 
L 420.816593 96.79015 
L 421.988004 96.38652 
L 423.159414 95.98289 
L 424.330825 95.57926 
L 425.502236 95.175631 
L 426.673646 94.772001 
L 427.845057 94.368371 
L 429.016467 93.964741 
L 430.187878 93.561112 
L 431.359289 93.157482 
L 432.530699 92.753852 
L 433.70211 92.350222 
L 434.873521 91.946592 
L 436.044931 91.542963 
L 437.216342 91.139333 
L 438.387753 90.735703 
L 439.559163 90.332073 
L 440.730574 89.928444 
L 441.901985 89.524814 
L 443.073395 89.121184 
L 444.244806 88.717554 
L 445.416217 88.313925 
L 446.587627 87.910295 
L 447.759038 87.506665 
L 448.930449 87.103035 
L 450.101859 86.699405 
L 451.27327 86.295776 
L 452.444681 85.892146 
L 453.616091 85.488516 
L 454.787502 85.084886 
L 455.958913 84.681257 
L 457.130323 84.277627 
L 458.301734 83.873997 
L 459.473145 83.470367 
L 460.644555 83.066738 
L 461.815966 82.663108 
L 462.987377 82.259478 
L 464.158787 81.855848 
L 465.330198 81.452218 
L 466.501609 81.048589 
L 467.673019 80.644959 
L 468.84443 80.241329 
L 470.015841 79.837699 
L 471.187251 79.43407 
L 472.358662 79.03044 
L 473.530072 78.62681 
L 474.701483 78.22318 
L 475.872894 77.819551 
L 477.044304 77.415921 
L 478.215715 77.012291 
L 479.387126 76.608661 
L 480.558536 76.205031 
L 481.729947 75.801402 
L 482.901358 75.397772 
L 484.072768 74.994142 
L 485.244179 74.590512 
L 486.41559 74.186883 
L 487.587 73.783253 
L 488.758411 73.379623 
L 489.929822 72.975993 
" clip-path="url(#pff43305dec)" style="fill: none; stroke-dasharray: 4.995,2.16; stroke-dashoffset: 0; stroke: #ee7733; stroke-width: 1.35"/>
   </g>
   <g id="patch_9">
    <path d="M 366.931703 152.07 
L 366.931703 45.222 
" style="fill: none; stroke: #000000; stroke-width: 0.7; stroke-linejoin: miter; stroke-linecap: square"/>
   </g>
   <g id="patch_10">
    <path d="M 366.931703 152.07 
L 495.786875 152.07 
" style="fill: none; stroke: #000000; stroke-width: 0.7; stroke-linejoin: miter; stroke-linecap: square"/>
   </g>
   <g id="text_28">
    <text style="font-weight: 700; font-size: 8px; font-family: 'Arial', 'Helvetica', 'DejaVu Sans', sans-serif; text-anchor: start" x="343.737772" y="42.40041" transform="rotate(-0 343.737772 42.40041)">c</text>
   </g>
   <g id="text_29">
    <text style="font-weight: 700; font-size: 7.2px; font-family: 'Arial', 'Helvetica', 'DejaVu Sans', sans-serif" transform="translate(394.985789 33.580325)">Per-GPU VRAM × API</text>
    <!-- Interaction $p$ = 0.957 -->
    <g transform="translate(396.547289 41.222)">
     <text>
      <tspan x="0" y="-0.96875" style="font-weight: 700; font-size: 7.2px; font-family: 'Arial'">I</tspan>
      <tspan x="2.014282" y="-0.96875" style="font-weight: 700; font-size: 7.2px; font-family: 'Arial'">n</tspan>
      <tspan x="6.442871" y="-0.96875" style="font-weight: 700; font-size: 7.2px; font-family: 'Arial'">t</tspan>
      <tspan x="8.857178" y="-0.96875" style="font-weight: 700; font-size: 7.2px; font-family: 'Arial'">e</tspan>
      <tspan x="12.889282" y="-0.96875" style="font-weight: 700; font-size: 7.2px; font-family: 'Arial'">r</tspan>
      <tspan x="15.710693" y="-0.96875" style="font-weight: 700; font-size: 7.2px; font-family: 'Arial'">a</tspan>
      <tspan x="19.742798" y="-0.96875" style="font-weight: 700; font-size: 7.2px; font-family: 'Arial'">c</tspan>
      <tspan x="23.774902" y="-0.96875" style="font-weight: 700; font-size: 7.2px; font-family: 'Arial'">t</tspan>
      <tspan x="26.189209" y="-0.96875" style="font-weight: 700; font-size: 7.2px; font-family: 'Arial'">i</tspan>
      <tspan x="28.203491" y="-0.96875" style="font-weight: 700; font-size: 7.2px; font-family: 'Arial'">o</tspan>
      <tspan x="32.63208" y="-0.96875" style="font-weight: 700; font-size: 7.2px; font-family: 'Arial'">n</tspan>
      <tspan x="37.060669" y="-0.96875" style="font-weight: 700; font-size: 7.2px; font-family: 'Arial'"> </tspan>
      <tspan x="43.677002" y="-0.96875" style="font-weight: 700; font-size: 7.2px; font-family: 'Arial'"> </tspan>
      <tspan x="45.691284" y="-0.96875" style="font-weight: 700; font-size: 7.2px; font-family: 'Arial'">=</tspan>
      <tspan x="49.925171" y="-0.96875" style="font-weight: 700; font-size: 7.2px; font-family: 'Arial'"> </tspan>
      <tspan x="51.939453" y="-0.96875" style="font-weight: 700; font-size: 7.2px; font-family: 'Arial'">0</tspan>
      <tspan x="55.971558" y="-0.96875" style="font-weight: 700; font-size: 7.2px; font-family: 'Arial'">.</tspan>
      <tspan x="57.98584" y="-0.96875" style="font-weight: 700; font-size: 7.2px; font-family: 'Arial'">9</tspan>
      <tspan x="62.017944" y="-0.96875" style="font-weight: 700; font-size: 7.2px; font-family: 'Arial'">5</tspan>
      <tspan x="66.050049" y="-0.96875" style="font-weight: 700; font-size: 7.2px; font-family: 'Arial'">7</tspan>
      <tspan x="39.074951" y="-0.96875" style="font-style: oblique; font-size: 7.2px; font-family: 'DejaVu Sans'">p</tspan>
     </text>
    </g>
   </g>
  </g>
  <g id="text_30">
   <text style="font-size: 7px; font-family: 'Arial', 'Helvetica', 'DejaVu Sans', sans-serif; text-anchor: middle" x="244.362875" y="185.894719" transform="rotate(-0 244.362875 185.894719)">Hardware capability (doublings relative to sample median)</text>
  </g>
  <g id="legend_1">
   <g id="line2d_49">
    <path d="M 207.388344 11.794688 
L 213.388344 11.794688 
L 219.388344 11.794688 
" style="fill: none; stroke: #4477aa; stroke-width: 1.5; stroke-linecap: square"/>
   </g>
   <g id="text_31">
    <text style="font-size: 6px; font-family: 'Arial', 'Helvetica', 'DejaVu Sans', sans-serif; text-anchor: start" x="224.188344" y="13.894688" transform="rotate(-0 224.188344 13.894688)">No API</text>
   </g>
   <g id="line2d_50">
    <path d="M 254.866156 11.794688 
L 260.866156 11.794688 
L 266.866156 11.794688 
" style="fill: none; stroke-dasharray: 5.55,2.4; stroke-dashoffset: 0; stroke: #ee7733; stroke-width: 1.5"/>
   </g>
   <g id="text_32">
    <text style="font-size: 6px; font-family: 'Arial', 'Helvetica', 'DejaVu Sans', sans-serif; text-anchor: start" x="271.666156" y="13.894688" transform="rotate(-0 271.666156 13.894688)">API</text>
   </g>
  </g>
 </g>
 <defs>
  <clipPath id="p90845fff67">
   <rect x="47.370875" y="45.222" width="128.855172" height="106.848"/>
  </clipPath>
  <clipPath id="pd105cd1b2d">
   <rect x="207.151289" y="45.222" width="128.855172" height="106.848"/>
  </clipPath>
  <clipPath id="pff43305dec">
   <rect x="366.931703" y="45.222" width="128.855172" height="106.848"/>
  </clipPath>
 </defs>
</svg>
